<?xml version="1.0" encoding="UTF-8"?>
<svg id="Layer_1" data-name="Layer 1" xmlns="http://www.w3.org/2000/svg" viewBox="0 0 1024 1024">
  <defs>
    <style>
      .cls-1 {
        fill: #fff;
      }
    </style>
  </defs>
  <circle cx="512" cy="512" r="512"/>
  <path class="cls-1" d="M659.23,909.18h-121.98V385.36h395.86v97.28h-273.89v426.54ZM649.5,621.08h251.44v97.28h-251.44v-97.28Z"/>
  <path class="cls-1" d="M682.21,321.49c-24.45-39.16-58.37-69.59-101.77-91.3-43.4-21.7-93.54-32.55-150.41-32.55h-237.97v523.83h237.97c56.87,0,107.01-10.85,150.41-32.55,43.4-21.7,77.32-52.13,101.77-91.3,24.44-39.16,36.67-85.18,36.67-138.07s-12.23-98.9-36.67-138.07Z"/>
  <path d="M536.89,706.13c15.07-4.69,29.47-10.47,43.19-17.33,34.31-17.15,62.66-39.78,85.12-67.84h-6.34v-138.44h58.84c.54-7.54.81-15.23.81-23.08,0-26.45-3.06-51.18-9.18-74.2h-172.45v320.89Z"/>
</svg>